<svg width="18" height="20" viewBox="0 0 18 20" fill="none" xmlns="http://www.w3.org/2000/svg">
<g id="Group 108">
<path id="Vector (Stroke)" fill-rule="evenodd" clip-rule="evenodd" d="M9.00001 0C6.35804 0 4.20825 2.14979 4.20825 4.79176C4.20825 7.43372 6.35803 9.58333 9.00001 9.58333C11.642 9.58333 13.7918 7.43372 13.7918 4.79176C13.7918 2.14979 11.642 0 9.00001 0ZM5.2755 4.79176C5.2755 2.73768 6.94613 1.06724 9.00001 1.06724C11.0539 1.06724 12.7245 2.73768 12.7245 4.79176C12.7245 6.84566 11.0539 8.51609 9.00001 8.51609C6.94614 8.51609 5.2755 6.84566 5.2755 4.79176Z" fill="#FF7010"/>
<path id="Vector (Stroke)_2" fill-rule="evenodd" clip-rule="evenodd" d="M4.96381 11.6665C2.59468 11.6665 0.666626 13.6453 0.666626 16.0768V19.4881C0.666626 19.7705 0.890047 19.9998 1.1652 19.9998H16.8347C17.1099 19.9998 17.3333 19.7705 17.3333 19.4881V16.0768C17.3333 13.6453 15.4052 11.6665 13.0361 11.6665H4.96381ZM1.66378 16.0768C1.66378 14.2092 3.14412 12.6899 4.96381 12.6899H13.0361C14.8558 12.6899 16.3361 14.2092 16.3361 16.0768V18.9764H1.66378V16.0768Z" fill="#FF7010"/>
</g>
</svg>
