<svg width="24" height="22" viewBox="0 0 24 22" fill="none" xmlns="http://www.w3.org/2000/svg">
<g id="Group 94">
<path id="Vector" d="M7.78125 14.5001H20.4846C20.7991 14.5001 21.0751 14.293 21.1602 13.9922L23.9729 4.1921C24.0333 3.98083 23.9919 3.75388 23.8588 3.57833C23.7255 3.40333 23.5183 3.29998 23.2971 3.29998H6.15802L5.6554 1.04833C5.58398 0.72768 5.29834 0.5 4.96875 0.5H0.703125C0.314575 0.5 0 0.813174 0 1.19999C0 1.587 0.314575 1.89999 0.703125 1.89999H4.40442L6.94354 13.2749C6.19647 13.5983 5.67188 14.3386 5.67188 15.2001C5.67188 16.358 6.61816 17.3 7.78125 17.3H20.4846C20.8733 17.3 21.1877 16.987 21.1877 16.6C21.1877 16.2132 20.8733 15.9 20.4846 15.9H7.78125C7.39398 15.9 7.07813 15.5863 7.07813 15.2001C7.07813 14.8138 7.39398 14.5001 7.78125 14.5001Z" fill="white"/>
<path id="Vector_2" d="M7.07812 19.3998C7.07812 20.5579 8.02441 21.4998 9.18768 21.4998C10.3508 21.4998 11.2971 20.5579 11.2971 19.3998C11.2971 18.2419 10.3508 17.2998 9.18768 17.2998C8.02441 17.2998 7.07812 18.2419 7.07812 19.3998Z" fill="white"/>
<path id="Vector_3" d="M16.9689 19.3998C16.9689 20.5579 17.9152 21.4998 19.0782 21.4998C20.2415 21.4998 21.1876 20.5579 21.1876 19.3998C21.1876 18.2419 20.2415 17.2998 19.0782 17.2998C17.9152 17.2998 16.9689 18.2419 16.9689 19.3998Z" fill="white"/>
</g>
</svg>
